<?xml version="1.0" encoding="utf-8"?>
<!-- Generator: Adobe Illustrator 27.5.0, SVG Export Plug-In . SVG Version: 6.00 Build 0)  -->
<svg version="1.1" xmlns="http://www.w3.org/2000/svg" xmlns:xlink="http://www.w3.org/1999/xlink" x="0px" y="0px"
	 viewBox="0 0 841.89 566.929" style="enable-background:new 0 0 841.89 566.929;" xml:space="preserve">
<g id="BG">
	<rect y="0" style="fill:#FFFFFF;" width="841.89" height="566.929"/>
</g>
<g id="graphics">
	<g>
		<g>
			<path style="fill:#6C6D6D;" d="M407.998,337.755v11.514h-1.521v-11.224c0-3.874-2.281-6.156-6.155-6.156
				c-4.345,0.109-7.024,2.824-7.351,7.17v10.21h-1.52v-18.863h1.52v4.814c1.268-3.113,3.947-4.779,7.712-4.852
				C405.282,330.368,407.998,333.156,407.998,337.755z"/>
			<path style="fill:#6C6D6D;" d="M430.85,340.253h-16.474c0.217,4.599,3.403,7.676,7.785,7.676c2.57,0,4.853-0.94,6.372-2.607
				l0.869,0.978c-1.738,1.883-4.309,3.006-7.314,3.006c-5.323,0-9.197-3.911-9.197-9.451c0-5.539,3.874-9.486,9.197-9.486
				C427.628,330.368,430.958,334.424,430.85,340.253z M429.475,338.913c-0.29-4.272-3.078-7.168-7.387-7.168
				c-4.236,0-7.314,2.895-7.676,7.168H429.475z"/>
			<path style="fill:#6C6D6D;" d="M452.108,347.205c0,5.575-3.585,9.124-9.125,9.088c-3.004-0.072-5.432-1.087-7.639-3.077
				l0.796-1.123c1.955,1.847,4.091,2.716,6.807,2.788c4.671,0.036,7.713-2.97,7.713-7.676v-3.549
				c-1.304,3.005-4.128,4.852-7.713,4.852c-5.068,0-8.726-3.802-8.726-9.052c0-5.285,3.657-9.088,8.689-9.088
				c3.621,0,6.409,1.884,7.749,4.889v-4.852h1.448V347.205z M450.66,339.492c0-4.489-3.187-7.747-7.531-7.747
				c-4.346,0-7.495,3.258-7.495,7.747c0,4.454,3.114,7.713,7.495,7.713C447.474,347.205,450.66,343.946,450.66,339.492z"/>
			<path style="fill:#6C6D6D;" d="M471.229,345.54c-1.594,2.606-4.272,3.766-7.531,3.766c-3.729,0-6.227-2.354-6.227-5.541
				c0-3.149,2.68-5.068,7.023-5.068h6.698v-1.847c-0.035-3.187-1.882-5.104-5.647-5.104c-2.354,0-4.346,0.94-6.336,2.462
				l-0.726-1.159c2.246-1.63,4.418-2.68,7.278-2.68c4.453,0,6.879,2.463,6.916,6.373l0.072,12.527h-1.484L471.229,345.54z
				 M471.229,343.113v-3.077h-6.59c-3.693,0-5.721,1.267-5.721,3.692c0,2.499,1.919,4.2,4.996,4.2
				C467.428,347.929,470.07,346.408,471.229,343.113z"/>
			<path style="fill:#6C6D6D;" d="M488.54,347.966c-1.194,0.832-2.534,1.34-3.945,1.34c-2.68,0.035-4.272-1.702-4.272-5.25v-11.877
				h-2.753v-1.303h2.753v-4.672h1.448v4.672h6.408v1.303h-6.408v11.695c0,2.679,1.049,3.983,3.005,3.946
				c1.086,0,2.208-0.398,3.185-1.086L488.54,347.966z"/>
			<path style="fill:#6C6D6D;" d="M495.169,324.974c0,0.761-0.579,1.34-1.267,1.34s-1.267-0.579-1.267-1.34
				c0-0.725,0.58-1.304,1.267-1.304S495.169,324.249,495.169,324.974z M493.142,349.269v-18.863h1.484v18.863H493.142z"/>
			<path style="fill:#6C6D6D;" d="M506.359,349.269l-7.64-18.863h1.629l6.807,17.233l6.771-17.233h1.594l-7.605,18.863H506.359z"/>
			<path style="fill:#6C6D6D;" d="M534.677,340.253h-16.474c0.218,4.599,3.403,7.676,7.785,7.676c2.57,0,4.852-0.94,6.372-2.607
				l0.868,0.978c-1.737,1.883-4.308,3.006-7.314,3.006c-5.322,0-9.196-3.911-9.196-9.451c0-5.539,3.874-9.486,9.196-9.486
				C531.455,330.368,534.786,334.424,534.677,340.253z M533.302,338.913c-0.29-4.272-3.078-7.168-7.387-7.168
				c-4.236,0-7.314,2.895-7.676,7.168H533.302z"/>
			<path style="fill:#6C6D6D;" d="M560.462,331.854l-0.651,1.23c-1.304-0.832-2.969-1.339-4.779-1.339
				c-2.643,0-4.706,1.013-4.706,3.258c0,5.068,11.006,2.571,11.006,9.232c0,3.513-3.15,5.07-6.553,5.07
				c-2.643,0-5.179-0.942-6.916-2.607l0.688-1.158c1.63,1.52,3.911,2.389,6.3,2.389c2.644,0,4.925-1.049,5.033-3.44
				c0.145-5.322-11.007-2.896-11.007-9.378c0-3.295,2.86-4.743,6.192-4.743C557.167,330.368,558.979,330.947,560.462,331.854z"/>
			<path style="fill:#6C6D6D;" d="M585.232,339.854c0,5.504-3.766,9.451-9.088,9.451c-3.693,0-6.59-1.92-8.003-4.962v11.949h-1.52
				v-25.888h1.52v4.96c1.413-3.078,4.31-4.997,8.003-4.997C581.43,330.368,585.232,334.315,585.232,339.854z M583.747,339.854
				c0-4.671-3.258-8.074-7.82-8.074c-4.526,0-7.785,3.403-7.785,8.074s3.259,8.038,7.785,8.038
				C580.489,347.893,583.747,344.525,583.747,339.854z"/>
			<path style="fill:#6C6D6D;" d="M602.833,345.54c-1.593,2.606-4.273,3.766-7.53,3.766c-3.73,0-6.229-2.354-6.229-5.541
				c0-3.149,2.68-5.068,7.024-5.068h6.698v-1.847c-0.036-3.187-1.883-5.104-5.647-5.104c-2.355,0-4.346,0.94-6.337,2.462
				l-0.725-1.159c2.245-1.63,4.417-2.68,7.278-2.68c4.453,0,6.879,2.463,6.915,6.373l0.072,12.527h-1.483L602.833,345.54z
				 M602.833,343.113v-3.077h-6.59c-3.693,0-5.721,1.267-5.721,3.692c0,2.499,1.919,4.2,4.997,4.2
				C599.031,347.929,601.674,346.408,602.833,343.113z"/>
			<path style="fill:#6C6D6D;" d="M625.214,333.012l-0.869,1.086c-1.521-1.412-3.477-2.281-5.829-2.281
				c-4.526,0-7.784,3.295-7.784,8.002c0,4.779,3.258,8.074,7.784,8.074c2.534,0,4.706-0.941,6.154-2.643l0.906,0.978
				c-1.665,1.955-4.164,3.078-7.097,3.078c-5.322,0-9.233-3.911-9.233-9.451c0-5.539,3.911-9.486,9.233-9.486
				C621.195,330.368,623.548,331.346,625.214,333.012z"/>
			<path style="fill:#6C6D6D;" d="M646.435,340.253h-16.475c0.217,4.599,3.403,7.676,7.784,7.676c2.571,0,4.852-0.94,6.372-2.607
				l0.869,0.978c-1.737,1.883-4.308,3.006-7.313,3.006c-5.322,0-9.196-3.911-9.196-9.451c0-5.539,3.874-9.486,9.196-9.486
				C643.213,330.368,646.544,334.424,646.435,340.253z M645.06,338.913c-0.29-4.272-3.078-7.168-7.387-7.168
				c-4.236,0-7.315,2.895-7.677,7.168H645.06z"/>
		</g>
	</g>
	<g>
		<g>
			<path style="fill:#6C6D6D;" d="M404.697,266.546v10.836h26.038v10.914h-26.038v10.992h29.702v10.914H390.82v-54.57h42.721v10.913
				H404.697z"/>
			<path style="fill:#6C6D6D;" d="M455.76,300.146l-3.977,10.057h-14.266l23.543-54.57h14.266l22.998,54.57h-14.813l-3.897-10.057
				H455.76z M467.765,269.431l-7.951,20.19h15.747L467.765,269.431z"/>
			<path style="fill:#6C6D6D;" d="M550.167,282.449v21.282c-5.848,4.132-15.046,7.095-22.686,7.095
				c-16.605,0-29.156-12.006-29.156-27.909c0-15.825,12.863-27.752,30.092-27.752c8.107,0,16.683,3.118,22.295,8.107l-7.795,9.433
				c-3.977-3.663-9.511-5.925-14.578-5.925c-8.966,0-15.825,7.017-15.825,16.137c0,9.277,6.938,16.293,15.98,16.293
				c2.807,0,6.393-1.014,9.667-2.65v-14.11H550.167z"/>
			<path style="fill:#6C6D6D;" d="M596.863,298.587v11.615h-37.029v-54.57h13.876v42.955H596.863z"/>
			<path style="fill:#6C6D6D;" d="M617.367,266.546v10.836h26.038v10.914h-26.038v10.992h29.702v10.914h-43.578v-54.57h42.721
				v10.913H617.367z"/>
		</g>
	</g>
	<g>
		<path style="fill:#3D60B8;" d="M331.445,279.875c1.44,5.108,6.75,8.081,11.86,6.64c5.108-1.44,8.08-6.749,6.64-11.858
			C348.503,269.548,330.004,274.766,331.445,279.875z"/>
		
			<linearGradient id="SVGID_1_" gradientUnits="userSpaceOnUse" x1="192.923" y1="241.4185" x2="392.3167" y2="312.868" gradientTransform="matrix(0.9989 -0.0465 0.0465 0.9989 -39.4982 41.9357)">
			<stop  offset="0" style="stop-color:#2FB2D0"/>
			<stop  offset="1" style="stop-color:#224396"/>
		</linearGradient>
		<path style="fill:url(#SVGID_1_);" d="M299.98,305.501c2.349-14.674,11.394-35.175,38.27-47.242
			c47.456-21.308,19.856-116.968-111.16-137.444c83.984,66.604,51.108,144.408,18.446,139.911
			c-13.27-1.827-25.953-15.317-47.368-25.484c30.6,38.101,20.651,74.279,0.01,107.603c36.921-18.853,55.011-29.706,76.237-1.559
			c12.867,17.061,10.942,78.177-50.165,126.552c68.847-10.854,128.43-53.399,137.317-111.468
			C368.273,312.559,340.581,302.402,299.98,305.501z"/>
	</g>
</g>
</svg>
